<mxfile host="app.diagrams.net" modified="2021-01-26T23:30:08.436Z" agent="5.0 (Windows)" etag="o4_68ECSb9Tjr1KIfjLH" version="14.1.9" type="github">
  <diagram name="Page-1" id="e3a06f82-3646-2815-327d-82caf3d4e204">
    <mxGraphModel dx="3356" dy="1816" grid="1" gridSize="10" guides="1" tooltips="1" connect="1" arrows="1" fold="1" page="1" pageScale="1.5" pageWidth="1700" pageHeight="1100" background="none" math="0" shadow="0">
      <root>
        <mxCell id="0" style=";html=1;" />
        <mxCell id="1" style=";html=1;" parent="0" />
        <mxCell id="6a7d8f32e03d9370-51" style="edgeStyle=none;rounded=0;html=1;startSize=10;endSize=10;jettySize=auto;orthogonalLoop=1;fontSize=14;endArrow=none;endFill=0;strokeWidth=3;fillColor=#f8cecc;strokeColor=#b85450;" parent="1" source="sF7BfKBR3R4_CQybX4fq-12" target="sF7BfKBR3R4_CQybX4fq-11" edge="1">
          <mxGeometry relative="1" as="geometry">
            <mxPoint x="1180" y="350" as="sourcePoint" />
            <mxPoint x="1360" y="358.80075973282953" as="targetPoint" />
          </mxGeometry>
        </mxCell>
        <mxCell id="sF7BfKBR3R4_CQybX4fq-2" value="" style="verticalLabelPosition=bottom;aspect=fixed;html=1;verticalAlign=top;strokeColor=none;align=center;outlineConnect=0;shape=mxgraph.citrix.cloud;" parent="1" vertex="1">
          <mxGeometry x="921.52" y="103" width="211.62" height="138.1" as="geometry" />
        </mxCell>
        <mxCell id="sF7BfKBR3R4_CQybX4fq-24" style="rounded=0;orthogonalLoop=1;jettySize=auto;html=1;fontSize=16;entryX=0.086;entryY=1.168;entryDx=0;entryDy=0;entryPerimeter=0;" parent="1" source="sF7BfKBR3R4_CQybX4fq-10" target="sF7BfKBR3R4_CQybX4fq-14" edge="1">
          <mxGeometry relative="1" as="geometry">
            <mxPoint x="580" y="630" as="targetPoint" />
          </mxGeometry>
        </mxCell>
        <mxCell id="sF7BfKBR3R4_CQybX4fq-10" value="" style="verticalLabelPosition=bottom;aspect=fixed;html=1;verticalAlign=top;strokeColor=none;align=center;outlineConnect=0;shape=mxgraph.citrix.ip_phone;" parent="1" vertex="1">
          <mxGeometry x="513.5" y="469.14" width="76.5" height="37" as="geometry" />
        </mxCell>
        <mxCell id="sF7BfKBR3R4_CQybX4fq-11" value="" style="verticalLabelPosition=bottom;aspect=fixed;html=1;verticalAlign=top;strokeColor=none;align=center;outlineConnect=0;shape=mxgraph.citrix.pbx_server;" parent="1" vertex="1">
          <mxGeometry x="1578.04" y="390.00000000000006" width="88.46" height="115.68" as="geometry" />
        </mxCell>
        <mxCell id="sF7BfKBR3R4_CQybX4fq-15" value="&lt;div&gt;Claro PSTN&lt;/div&gt;&lt;div&gt;SIP Trunk&lt;/div&gt;787-257-5105" style="text;html=1;resizable=0;autosize=1;align=center;verticalAlign=middle;points=[];fillColor=none;strokeColor=none;rounded=0;fontSize=16;" parent="1" vertex="1">
          <mxGeometry x="956.25" y="132.05" width="150" height="80" as="geometry" />
        </mxCell>
        <mxCell id="sF7BfKBR3R4_CQybX4fq-17" value="&lt;div&gt;Sangoma IP-PBX&lt;/div&gt;&lt;div&gt;40.199.4.65&lt;br&gt;&lt;/div&gt;" style="text;html=1;resizable=0;autosize=1;align=center;verticalAlign=middle;points=[];fillColor=none;strokeColor=none;rounded=0;fontSize=16;rotation=0;" parent="1" vertex="1">
          <mxGeometry x="1370" y="390" width="180" height="60" as="geometry" />
        </mxCell>
        <mxCell id="sF7BfKBR3R4_CQybX4fq-18" value="&lt;div&gt;Cisco CUBE&lt;/div&gt;&lt;div&gt;SBC&lt;br&gt;&lt;/div&gt;" style="text;html=1;resizable=0;autosize=1;align=center;verticalAlign=middle;points=[];fillColor=none;strokeColor=none;rounded=0;fontSize=16;rotation=0;" parent="1" vertex="1">
          <mxGeometry x="760" y="381.3" width="130" height="60" as="geometry" />
        </mxCell>
        <mxCell id="sF7BfKBR3R4_CQybX4fq-21" value="" style="group" parent="1" vertex="1" connectable="0">
          <mxGeometry x="910" y="332.2" width="174.66000000000008" height="117.79999999999998" as="geometry" />
        </mxCell>
        <mxCell id="sF7BfKBR3R4_CQybX4fq-7" value="" style="verticalLabelPosition=bottom;aspect=fixed;html=1;verticalAlign=top;strokeColor=none;shape=mxgraph.citrix.firewall;fillColor=#66B2FF;gradientColor=#0066CC;fontSize=14;" parent="sF7BfKBR3R4_CQybX4fq-21" vertex="1">
          <mxGeometry width="95" height="117.8" as="geometry" />
        </mxCell>
        <mxCell id="sF7BfKBR3R4_CQybX4fq-19" value="" style="verticalLabelPosition=bottom;aspect=fixed;html=1;verticalAlign=top;strokeColor=none;align=center;outlineConnect=0;shape=mxgraph.citrix.router;fontSize=16;" parent="sF7BfKBR3R4_CQybX4fq-21" vertex="1">
          <mxGeometry x="60" y="33.26000000000002" width="114.66" height="76.09" as="geometry" />
        </mxCell>
        <mxCell id="sF7BfKBR3R4_CQybX4fq-29" style="edgeStyle=none;rounded=0;orthogonalLoop=1;jettySize=auto;html=1;endArrow=none;endFill=0;strokeWidth=2;fontSize=16;" parent="1" source="sF7BfKBR3R4_CQybX4fq-12" target="sF7BfKBR3R4_CQybX4fq-19" edge="1">
          <mxGeometry relative="1" as="geometry" />
        </mxCell>
        <mxCell id="sF7BfKBR3R4_CQybX4fq-27" style="edgeStyle=none;rounded=0;orthogonalLoop=1;jettySize=auto;html=1;fontSize=16;" parent="1" source="sF7BfKBR3R4_CQybX4fq-26" target="sF7BfKBR3R4_CQybX4fq-14" edge="1">
          <mxGeometry relative="1" as="geometry" />
        </mxCell>
        <mxCell id="sF7BfKBR3R4_CQybX4fq-26" value="" style="verticalLabelPosition=bottom;aspect=fixed;html=1;verticalAlign=top;strokeColor=none;align=center;outlineConnect=0;shape=mxgraph.citrix.ip_phone;" parent="1" vertex="1">
          <mxGeometry x="1590" y="660" width="76.5" height="37" as="geometry" />
        </mxCell>
        <mxCell id="sF7BfKBR3R4_CQybX4fq-28" style="edgeStyle=none;rounded=0;orthogonalLoop=1;jettySize=auto;html=1;endArrow=none;endFill=0;strokeWidth=2;fontSize=16;" parent="1" source="sF7BfKBR3R4_CQybX4fq-19" target="sF7BfKBR3R4_CQybX4fq-2" edge="1">
          <mxGeometry relative="1" as="geometry" />
        </mxCell>
        <mxCell id="2gC9s2rack67uk8PMBhe-7" value="" style="shape=mxgraph.cisco.controllers_and_modules.3174_(desktop)_cluster_controller;html=1;pointerEvents=1;dashed=0;fillColor=#036897;strokeColor=#ffffff;strokeWidth=2;verticalLabelPosition=bottom;verticalAlign=top;align=center;outlineConnect=0;" vertex="1" parent="1">
          <mxGeometry x="180" y="880" width="240" height="60" as="geometry" />
        </mxCell>
        <mxCell id="2gC9s2rack67uk8PMBhe-8" value="" style="shape=mxgraph.cisco.controllers_and_modules.3174_(desktop)_cluster_controller;html=1;pointerEvents=1;dashed=0;fillColor=#036897;strokeColor=#ffffff;strokeWidth=2;verticalLabelPosition=bottom;verticalAlign=top;align=center;outlineConnect=0;" vertex="1" parent="1">
          <mxGeometry x="210" y="1290" width="240" height="60" as="geometry" />
        </mxCell>
        <mxCell id="2gC9s2rack67uk8PMBhe-9" value="" style="shape=mxgraph.cisco.controllers_and_modules.3174_(desktop)_cluster_controller;html=1;pointerEvents=1;dashed=0;fillColor=#036897;strokeColor=#ffffff;strokeWidth=2;verticalLabelPosition=bottom;verticalAlign=top;align=center;outlineConnect=0;" vertex="1" parent="1">
          <mxGeometry x="1900" y="880.0000000000001" width="240" height="60" as="geometry" />
        </mxCell>
        <mxCell id="2gC9s2rack67uk8PMBhe-11" value="&lt;div&gt;40 DID&#39;S&lt;/div&gt;&lt;div&gt;Numbers&lt;br&gt;&lt;/div&gt;" style="text;html=1;resizable=0;autosize=1;align=center;verticalAlign=middle;points=[];fillColor=none;strokeColor=none;rounded=0;fontSize=16;" vertex="1" parent="1">
          <mxGeometry x="1150" y="152.05" width="100" height="60" as="geometry" />
        </mxCell>
        <mxCell id="2gC9s2rack67uk8PMBhe-12" value="10.37.133.5/30" style="text;html=1;resizable=0;autosize=1;align=center;verticalAlign=middle;points=[];fillColor=none;strokeColor=none;rounded=0;fontSize=16;" vertex="1" parent="1">
          <mxGeometry x="1020" y="320" width="160" height="30" as="geometry" />
        </mxCell>
        <mxCell id="2gC9s2rack67uk8PMBhe-13" style="edgeStyle=orthogonalEdgeStyle;curved=1;rounded=0;orthogonalLoop=1;jettySize=auto;html=1;fontSize=16;endArrow=none;endFill=0;" edge="1" parent="1" source="2gC9s2rack67uk8PMBhe-6" target="2gC9s2rack67uk8PMBhe-7">
          <mxGeometry relative="1" as="geometry" />
        </mxCell>
        <mxCell id="2gC9s2rack67uk8PMBhe-14" style="edgeStyle=orthogonalEdgeStyle;curved=1;rounded=0;orthogonalLoop=1;jettySize=auto;html=1;entryX=1;entryY=0.5;entryDx=0;entryDy=0;entryPerimeter=0;endArrow=none;endFill=0;fontSize=16;" edge="1" parent="1" source="2gC9s2rack67uk8PMBhe-3" target="2gC9s2rack67uk8PMBhe-7">
          <mxGeometry relative="1" as="geometry">
            <Array as="points">
              <mxPoint x="1070" y="1145" />
              <mxPoint x="1070" y="910" />
            </Array>
          </mxGeometry>
        </mxCell>
        <mxCell id="2gC9s2rack67uk8PMBhe-15" value="EXT 57XX" style="text;html=1;resizable=0;autosize=1;align=center;verticalAlign=middle;points=[];fillColor=none;strokeColor=none;rounded=0;fontSize=16;" vertex="1" parent="1">
          <mxGeometry x="470" y="530" width="110" height="30" as="geometry" />
        </mxCell>
        <mxCell id="2gC9s2rack67uk8PMBhe-16" value="EXT 57XX" style="text;html=1;resizable=0;autosize=1;align=center;verticalAlign=middle;points=[];fillColor=none;strokeColor=none;rounded=0;fontSize=16;" vertex="1" parent="1">
          <mxGeometry x="1650" y="720" width="110" height="30" as="geometry" />
        </mxCell>
        <mxCell id="2gC9s2rack67uk8PMBhe-21" style="edgeStyle=none;rounded=0;orthogonalLoop=1;jettySize=auto;html=1;endArrow=none;endFill=0;fontSize=16;" edge="1" parent="1" source="2gC9s2rack67uk8PMBhe-17" target="2gC9s2rack67uk8PMBhe-8">
          <mxGeometry relative="1" as="geometry" />
        </mxCell>
        <mxCell id="2gC9s2rack67uk8PMBhe-28" style="edgeStyle=orthogonalEdgeStyle;curved=1;rounded=0;orthogonalLoop=1;jettySize=auto;html=1;endArrow=none;endFill=0;fontSize=16;strokeWidth=3;fillColor=#f8cecc;strokeColor=#b85450;" edge="1" parent="1" source="2gC9s2rack67uk8PMBhe-17" target="2gC9s2rack67uk8PMBhe-37">
          <mxGeometry relative="1" as="geometry" />
        </mxCell>
        <mxCell id="2gC9s2rack67uk8PMBhe-17" value="" style="verticalLabelPosition=bottom;aspect=fixed;html=1;verticalAlign=top;strokeColor=none;align=center;outlineConnect=0;shape=mxgraph.citrix.switch;" vertex="1" parent="1">
          <mxGeometry x="778.5" y="1355.34" width="131.5" height="59.32" as="geometry" />
        </mxCell>
        <mxCell id="2gC9s2rack67uk8PMBhe-18" value="&lt;div&gt;Vega200 GW&lt;br&gt;&lt;/div&gt;" style="text;html=1;resizable=0;autosize=1;align=center;verticalAlign=middle;points=[];fillColor=none;strokeColor=none;rounded=0;fontSize=16;" vertex="1" parent="1">
          <mxGeometry x="770" y="1420" width="140" height="30" as="geometry" />
        </mxCell>
        <mxCell id="2gC9s2rack67uk8PMBhe-20" value="40.199.4.66" style="text;html=1;resizable=0;autosize=1;align=center;verticalAlign=middle;points=[];fillColor=none;strokeColor=none;rounded=0;fontSize=16;" vertex="1" parent="1">
          <mxGeometry x="952.5" y="1350" width="130" height="30" as="geometry" />
        </mxCell>
        <mxCell id="2gC9s2rack67uk8PMBhe-22" value="PRI/T1" style="text;html=1;resizable=0;autosize=1;align=center;verticalAlign=middle;points=[];fillColor=none;strokeColor=none;rounded=0;fontSize=16;" vertex="1" parent="1">
          <mxGeometry x="570" y="1380" width="80" height="30" as="geometry" />
        </mxCell>
        <mxCell id="2gC9s2rack67uk8PMBhe-25" style="edgeStyle=orthogonalEdgeStyle;curved=1;rounded=0;orthogonalLoop=1;jettySize=auto;html=1;endArrow=none;endFill=0;fontSize=16;" edge="1" parent="1" source="2gC9s2rack67uk8PMBhe-2" target="2gC9s2rack67uk8PMBhe-9">
          <mxGeometry relative="1" as="geometry" />
        </mxCell>
        <mxCell id="2gC9s2rack67uk8PMBhe-26" style="edgeStyle=orthogonalEdgeStyle;curved=1;rounded=0;orthogonalLoop=1;jettySize=auto;html=1;entryX=0;entryY=0.5;entryDx=0;entryDy=0;entryPerimeter=0;endArrow=none;endFill=0;fontSize=16;" edge="1" parent="1" source="2gC9s2rack67uk8PMBhe-6" target="2gC9s2rack67uk8PMBhe-9">
          <mxGeometry relative="1" as="geometry" />
        </mxCell>
        <mxCell id="2gC9s2rack67uk8PMBhe-1" value="" style="group;fontSize=15;" vertex="1" connectable="0" parent="1">
          <mxGeometry x="1440" y="1150" width="295" height="189.26" as="geometry" />
        </mxCell>
        <mxCell id="2gC9s2rack67uk8PMBhe-2" value="" style="verticalLabelPosition=bottom;aspect=fixed;html=1;verticalAlign=top;strokeColor=none;align=center;outlineConnect=0;shape=mxgraph.citrix.cloud;" vertex="1" parent="2gC9s2rack67uk8PMBhe-1">
          <mxGeometry width="290" height="189.26" as="geometry" />
        </mxCell>
        <mxCell id="2gC9s2rack67uk8PMBhe-3" value="&lt;div&gt;Claro&lt;/div&gt;&lt;div&gt;Telecom PSTN&lt;br&gt;&lt;/div&gt;" style="text;html=1;align=center;verticalAlign=middle;resizable=0;points=[];autosize=1;fontSize=16;" vertex="1" parent="2gC9s2rack67uk8PMBhe-1">
          <mxGeometry x="67.50365853658536" y="64.62716645489199" width="160" height="60" as="geometry" />
        </mxCell>
        <mxCell id="2gC9s2rack67uk8PMBhe-4" value="" style="group;fontSize=15;" vertex="1" connectable="0" parent="1">
          <mxGeometry x="570" y="1010" width="295" height="189.26" as="geometry" />
        </mxCell>
        <mxCell id="2gC9s2rack67uk8PMBhe-5" value="" style="verticalLabelPosition=bottom;aspect=fixed;html=1;verticalAlign=top;strokeColor=none;align=center;outlineConnect=0;shape=mxgraph.citrix.cloud;" vertex="1" parent="2gC9s2rack67uk8PMBhe-4">
          <mxGeometry width="290" height="189.26" as="geometry" />
        </mxCell>
        <mxCell id="2gC9s2rack67uk8PMBhe-6" value="&lt;div&gt;AT&amp;amp;T&lt;br&gt;&lt;/div&gt;&lt;div&gt;Telecom PSTN&lt;br&gt;&lt;/div&gt;" style="text;html=1;align=center;verticalAlign=middle;resizable=0;points=[];autosize=1;fontSize=16;" vertex="1" parent="2gC9s2rack67uk8PMBhe-4">
          <mxGeometry x="67.50365853658536" y="64.62716645489199" width="160" height="60" as="geometry" />
        </mxCell>
        <mxCell id="2gC9s2rack67uk8PMBhe-27" value="GW-PRC-CARO-03" style="text;html=1;resizable=0;autosize=1;align=center;verticalAlign=middle;points=[];fillColor=none;strokeColor=none;rounded=0;fontSize=16;" vertex="1" parent="1">
          <mxGeometry x="200" y="1370" width="200" height="30" as="geometry" />
        </mxCell>
        <mxCell id="2gC9s2rack67uk8PMBhe-29" value="GW-PRC-CARO-01" style="text;html=1;resizable=0;autosize=1;align=center;verticalAlign=middle;points=[];fillColor=none;strokeColor=none;rounded=0;fontSize=16;" vertex="1" parent="1">
          <mxGeometry x="210" y="830" width="200" height="30" as="geometry" />
        </mxCell>
        <mxCell id="2gC9s2rack67uk8PMBhe-30" value="GW-PRC-CARO-02" style="text;html=1;resizable=0;autosize=1;align=center;verticalAlign=middle;points=[];fillColor=none;strokeColor=none;rounded=0;fontSize=16;" vertex="1" parent="1">
          <mxGeometry x="1940" y="839.26" width="200" height="30" as="geometry" />
        </mxCell>
        <mxCell id="2gC9s2rack67uk8PMBhe-31" value="40.199.4.67" style="text;html=1;resizable=0;autosize=1;align=center;verticalAlign=middle;points=[];fillColor=none;strokeColor=none;rounded=0;fontSize=16;" vertex="1" parent="1">
          <mxGeometry x="1020" y="457.79999999999995" width="130" height="30" as="geometry" />
        </mxCell>
        <mxCell id="2gC9s2rack67uk8PMBhe-32" value="PRI/T1" style="text;html=1;resizable=0;autosize=1;align=center;verticalAlign=middle;points=[];fillColor=none;strokeColor=none;rounded=0;fontSize=16;" vertex="1" parent="1">
          <mxGeometry x="220" y="980.0000000000001" width="80" height="30" as="geometry" />
        </mxCell>
        <mxCell id="2gC9s2rack67uk8PMBhe-33" value="PRI/T1" style="text;html=1;resizable=0;autosize=1;align=center;verticalAlign=middle;points=[];fillColor=none;strokeColor=none;rounded=0;fontSize=16;" vertex="1" parent="1">
          <mxGeometry x="1790" y="920.0000000000001" width="80" height="30" as="geometry" />
        </mxCell>
        <mxCell id="2gC9s2rack67uk8PMBhe-34" value="PRI/T1" style="text;html=1;resizable=0;autosize=1;align=center;verticalAlign=middle;points=[];fillColor=none;strokeColor=none;rounded=0;fontSize=16;" vertex="1" parent="1">
          <mxGeometry x="1920" y="1000.0000000000001" width="80" height="30" as="geometry" />
        </mxCell>
        <mxCell id="2gC9s2rack67uk8PMBhe-35" value="PRI/T1" style="text;html=1;resizable=0;autosize=1;align=center;verticalAlign=middle;points=[];fillColor=none;strokeColor=none;rounded=0;fontSize=16;" vertex="1" parent="1">
          <mxGeometry x="450" y="875.0000000000001" width="80" height="30" as="geometry" />
        </mxCell>
        <mxCell id="sF7BfKBR3R4_CQybX4fq-16" value="" style="group;fontSize=15;" parent="1" vertex="1" connectable="0">
          <mxGeometry x="870" y="670.74" width="295" height="208.57999999999998" as="geometry" />
        </mxCell>
        <mxCell id="sF7BfKBR3R4_CQybX4fq-13" value="" style="verticalLabelPosition=bottom;aspect=fixed;html=1;verticalAlign=top;strokeColor=none;align=center;outlineConnect=0;shape=mxgraph.citrix.cloud;" parent="sF7BfKBR3R4_CQybX4fq-16" vertex="1">
          <mxGeometry width="290" height="189.26" as="geometry" />
        </mxCell>
        <mxCell id="sF7BfKBR3R4_CQybX4fq-14" value="&lt;font style=&quot;font-size: 20px&quot;&gt;Lilly Network&lt;/font&gt;" style="text;html=1;align=center;verticalAlign=middle;resizable=0;points=[];autosize=1;fontSize=16;" parent="sF7BfKBR3R4_CQybX4fq-16" vertex="1">
          <mxGeometry x="82.50365853658536" y="79.62716645489199" width="130" height="30" as="geometry" />
        </mxCell>
        <mxCell id="sF7BfKBR3R4_CQybX4fq-12" value="" style="verticalLabelPosition=bottom;aspect=fixed;html=1;verticalAlign=top;strokeColor=none;align=center;outlineConnect=0;shape=mxgraph.citrix.switch;" parent="sF7BfKBR3R4_CQybX4fq-16" vertex="1">
          <mxGeometry x="91.58000000000004" y="-30" width="131.5" height="59.32" as="geometry" />
        </mxCell>
        <mxCell id="2gC9s2rack67uk8PMBhe-36" value="vlan4020" style="text;html=1;resizable=0;autosize=1;align=center;verticalAlign=middle;points=[];fillColor=none;strokeColor=none;rounded=0;fontSize=16;" vertex="1" parent="sF7BfKBR3R4_CQybX4fq-16">
          <mxGeometry x="112.5" y="-15.340000000000032" width="100" height="30" as="geometry" />
        </mxCell>
        <mxCell id="2gC9s2rack67uk8PMBhe-37" value="" style="verticalLabelPosition=bottom;aspect=fixed;html=1;verticalAlign=top;strokeColor=none;align=center;outlineConnect=0;shape=mxgraph.citrix.switch;" vertex="1" parent="sF7BfKBR3R4_CQybX4fq-16">
          <mxGeometry x="79.25" y="149.26" width="131.5" height="59.32" as="geometry" />
        </mxCell>
        <mxCell id="2gC9s2rack67uk8PMBhe-38" value="vlan4020" style="text;html=1;resizable=0;autosize=1;align=center;verticalAlign=middle;points=[];fillColor=none;strokeColor=none;rounded=0;fontSize=16;" vertex="1" parent="sF7BfKBR3R4_CQybX4fq-16">
          <mxGeometry x="102.38999999999987" y="169.26" width="100" height="30" as="geometry" />
        </mxCell>
      </root>
    </mxGraphModel>
  </diagram>
</mxfile>
